<?xml version="1.0" encoding="utf-8"?>
<svg id="master-artboard" viewBox="0 0 550 385" version="1.1" xmlns="http://www.w3.org/2000/svg" x="0px" y="0px" style="enable-background:new 0 0 550 385;" width="550px" height="385px" xmlns:xlink="http://www.w3.org/1999/xlink"><rect id="ee-background" x="0" y="0" width="550" height="385" style="fill: rgb(251, 248, 243); fill-opacity: 1; pointer-events: none;"/>

<path d="M 0 0 H 550 V 385 H 0 V 0 Z" id="color" class="st0" style="fill: rgb(251, 248, 243); fill-opacity: 0.2;" transform="matrix(1, 0, 0, 1, 0, 0)"/>
<g transform="matrix(1, 0, 0, 1, 0, 0)">
		<defs>
			<path d="M 0 0 H 550 V 385 H 0 V 0 Z" id="SVGID_1_"/>
		</defs>
		<clipPath id="SVGID_2_">
			<use style="overflow:visible;" xlink:href="#SVGID_1_"/>
		</clipPath>
		<g class="st1" style="clip-path: url('#SVGID_2_');">
			<g>
				<path d="M 256.299988 179.899994 H 276.399988 V 230.199993 H 256.299988 V 179.899994 Z" class="st2" style="fill: rgb(240, 228, 206); fill-opacity: 0.2;"/>
			</g>
			<g>
				<path d="M 143.100006 112.300003 H 203.900005 V 149.300003 H 143.100006 V 112.300003 Z" class="st3" style="fill: rgb(11, 49, 131); fill-opacity: 0.2;"/>
			</g>
			<g>
				<path d="M 29 316 H 85.200001 V 344.4 H 29 V 316 Z" class="st4" style="fill: rgb(243, 185, 0); fill-opacity: 0.2;"/>
			</g>
			<g>
				<path d="M 93.5 265 H 153.599998 V 286.799999 H 93.5 V 265 Z" class="st5" style="fill: rgb(196, 5, 31); fill-opacity: 0.2;"/>
			</g>
			<g>
				<path d="M 136.5 321.100006 H 206.5 V 359.400005 H 136.5 V 321.100006 Z" class="st6" style="fill: rgb(57, 87, 21); fill-opacity: 0.2;"/>
			</g>
			<g>
				<path d="M 213.800003 251.100006 H 256.100002 V 270.300007 H 213.800003 V 251.100006 Z" class="st5" style="fill: rgb(196, 5, 31); fill-opacity: 0.2;"/>
			</g>
			<g>
				<path d="M 257.399994 298.700012 H 314.199993 V 326.500011 H 257.399994 V 298.700012 Z" class="st2" style="fill: rgb(240, 228, 206); fill-opacity: 0.2;"/>
			</g>
			<g>
				<path d="M 319.600006 225.300003 H 381.100006 V 251.100002 H 319.600006 V 225.300003 Z" class="st3" style="fill: rgb(11, 49, 131); fill-opacity: 0.2;"/>
			</g>
			<g>
				<path d="M 99.5 195.600006 H 176.400002 V 242.100006 H 99.5 V 195.600006 Z" class="st4" style="fill: rgb(243, 185, 0); fill-opacity: 0.2;"/>
			</g>
			<g>
				<path d="M -12.4 222.300003 H 53.000002 V 257.000004 H -12.4 V 222.300003 Z" class="st3" style="fill: rgb(11, 49, 131); fill-opacity: 0.2;"/>
			</g>
			<g>
				<path d="M 14.2 160.5 H 76.299998 V 188.9 H 14.2 V 160.5 Z" class="st5" style="fill: rgb(196, 5, 31); fill-opacity: 0.2;"/>
			</g>
			<g>
				<path d="M 87.599998 151.300003 H 124.599998 V 186.400002 H 87.599998 V 151.300003 Z" class="st2" style="fill: rgb(240, 228, 206); fill-opacity: 0.2;"/>
			</g>
			<g>
				<path d="M 198.600006 183.699997 H 241.600006 V 213.399998 H 198.600006 V 183.699997 Z" class="st6" style="fill: rgb(57, 87, 21); fill-opacity: 0.2;"/>
			</g>
			<g>
				<path d="M 282.5 144.699997 H 363.099998 V 177.099998 H 282.5 V 144.699997 Z" class="st4" style="fill: rgb(243, 185, 0); fill-opacity: 0.2;"/>
			</g>
			<g>
				<path d="M 266.899994 353.5 H 349.899994 V 398.099998 H 266.899994 V 353.5 Z" class="st5" style="fill: rgb(196, 5, 31); fill-opacity: 0.2;"/>
			</g>
			<g>
				<path d="M 48.599998 361.399994 H 96.199997 V 404.999992 H 48.599998 V 361.399994 Z" class="st3" style="fill: rgb(11, 49, 131); fill-opacity: 0.2;"/>
			</g>
			<g>
				<path d="M 203.800003 72.699997 H 255.300003 V 90.099997 H 203.800003 V 72.699997 Z" class="st5" style="fill: rgb(196, 5, 31); fill-opacity: 0.2;"/>
			</g>
			<g>
				<path d="M 66 -20.299999 H 135.699997 V 13.700001 H 66 V -20.299999 Z" class="st5" style="fill: rgb(196, 5, 31); fill-opacity: 0.2;"/>
			</g>
			<g>
				<path d="M 11.2 80.099998 H 53.499999 V 90.899999 H 11.2 V 80.099998 Z" class="st5" style="fill: rgb(196, 5, 31); fill-opacity: 0.2;"/>
			</g>
			<g>
				<path d="M 410.600006 95.900002 H 475.400009 V 110.800001 H 410.600006 V 95.900002 Z" class="st3" style="fill: rgb(11, 49, 131); fill-opacity: 0.2;"/>
			</g>
			<g>
				<path d="M 354.899994 12.1 H 410.499992 V 38.700001 H 354.899994 V 12.1 Z" class="st5" style="fill: rgb(196, 5, 31); fill-opacity: 0.2;"/>
			</g>
			<g>
				<path d="M 292.700012 188.899994 H 348.300011 V 215.499994 H 292.700012 V 188.899994 Z" class="st5" style="fill: rgb(196, 5, 31); fill-opacity: 0.2;"/>
			</g>
			<g>
				<path d="M 372.399994 307.5 H 424.699993 V 330.700001 H 372.399994 V 307.5 Z" class="st3" style="fill: rgb(11, 49, 131); fill-opacity: 0.2;"/>
			</g>
			<g>
				<path d="M 494.399994 196.399994 H 513.499994 V 251.999992 H 494.399994 V 196.399994 Z" class="st5" style="fill: rgb(196, 5, 31); fill-opacity: 0.2;"/>
			</g>
			<g>
				<path d="M 266.100006 -41.900002 H 283.500006 V 11.199997 H 266.100006 V -41.900002 Z" class="st5" style="fill: rgb(196, 5, 31); fill-opacity: 0.2;"/>
			</g>
			<g>
				<path d="M 159 -22 H 178.1 V 39.400002 H 159 V -22 Z" class="st3" style="fill: rgb(11, 49, 131); fill-opacity: 0.2;"/>
			</g>
			<g>
				<path d="M 285.200012 71.800003 H 328.400013 V 102.500004 H 285.200012 V 71.800003 Z" class="st3" style="fill: rgb(11, 49, 131); fill-opacity: 0.2;"/>
			</g>
			<g>
				<path d="M 482.799988 352.5 H 529.299988 V 386.5 H 482.799988 V 352.5 Z" class="st3" style="fill: rgb(11, 49, 131); fill-opacity: 0.2;"/>
			</g>
			<g>
				<path d="M 501.899994 149.899994 H 552.499992 V 169.799994 H 501.899994 V 149.899994 Z" class="st3" style="fill: rgb(11, 49, 131); fill-opacity: 0.2;"/>
			</g>
			<g>
				<path d="M 490.299988 -4.5 H 532.599987 V 57.799999 H 490.299988 V -4.5 Z" class="st3" style="fill: rgb(11, 49, 131); fill-opacity: 0.2;"/>
			</g>
			<g>
				<path d="M 433.799988 -42.700001 H 458.699987 V 11.299999 H 433.799988 V -42.700001 Z" class="st3" style="fill: rgb(11, 49, 131); fill-opacity: 0.2;"/>
			</g>
			<g>
				<path d="M 307.600006 -32.799999 H 348.300007 V -16.999999 H 307.600006 V -32.799999 Z" class="st3" style="fill: rgb(11, 49, 131); fill-opacity: 0.2;"/>
			</g>
			<g>
				<path d="M -7.1 100.099998 H 25.300002 V 139.099998 H -7.1 V 100.099998 Z" class="st4" style="fill: rgb(243, 185, 0); fill-opacity: 0.2;"/>
			</g>
			<g>
				<path d="M -2.9 -39.400002 H 19.5 V 12.899998 H -2.9 V -39.400002 Z" class="st4" style="fill: rgb(243, 185, 0); fill-opacity: 0.2;"/>
			</g>
			<g>
				<path d="M 332.5 276.100006 H 354.9 V 328.400005 H 332.5 V 276.100006 Z" class="st4" style="fill: rgb(243, 185, 0); fill-opacity: 0.2;"/>
			</g>
			<g>
				<path d="M 188 383.200012 H 244.5 V 403.100012 H 188 V 383.200012 Z" class="st4" style="fill: rgb(243, 185, 0); fill-opacity: 0.2;"/>
			</g>
			<g>
				<path d="M 410.600006 352.5 H 456.300007 V 404 H 410.600006 V 352.5 Z" class="st4" style="fill: rgb(243, 185, 0); fill-opacity: 0.2;"/>
			</g>
			<g>
				<path d="M 494.399994 302.700012 H 560.799995 V 327.600012 H 494.399994 V 302.700012 Z" class="st4" style="fill: rgb(243, 185, 0); fill-opacity: 0.2;"/>
			</g>
			<g>
				<path d="M 405.600006 245.399994 H 468.700005 V 271.999994 H 405.600006 V 245.399994 Z" class="st4" style="fill: rgb(243, 185, 0); fill-opacity: 0.2;"/>
			</g>
			<g>
				<path d="M 450.399994 134.899994 H 474.499994 V 198.799995 H 450.399994 V 134.899994 Z" class="st4" style="fill: rgb(243, 185, 0); fill-opacity: 0.2;"/>
			</g>
			<g>
				<path d="M 541.799988 22.9 H 563.399988 V 87.700003 H 541.799988 V 22.9 Z" class="st4" style="fill: rgb(243, 185, 0); fill-opacity: 0.2;"/>
			</g>
			<g>
				<path d="M 361.600006 54.400002 H 414.700005 V 78.500002 H 361.600006 V 54.400002 Z" class="st4" style="fill: rgb(243, 185, 0); fill-opacity: 0.2;"/>
			</g>
			<g>
				<path d="M 198 -12 H 247.799999 V 9.6 H 198 V -12 Z" class="st4" style="fill: rgb(243, 185, 0); fill-opacity: 0.2;"/>
			</g>
			<g>
				<path d="M -7.9 360 H 35.300001 V 393.200001 H -7.9 V 360 Z" class="st6" style="fill: rgb(57, 87, 21); fill-opacity: 0.2;"/>
			</g>
			<g>
				<path d="M 71.800003 84.300003 H 126.600002 V 115.900003 H 71.800003 V 84.300003 Z" class="st6" style="fill: rgb(57, 87, 21); fill-opacity: 0.2;"/>
			</g>
			<g>
				<path d="M 35.299999 -41.099998 H 55.199999 V 31.099998 H 35.299999 V -41.099998 Z" class="st6" style="fill: rgb(57, 87, 21); fill-opacity: 0.2;"/>
			</g>
			<g>
				<path d="M 199.699997 24.5 H 239.599998 V 53.6 H 199.699997 V 24.5 Z" class="st6" style="fill: rgb(57, 87, 21); fill-opacity: 0.2;"/>
			</g>
			<g>
				<path d="M 280.200012 259.5 H 320.100014 V 288.6 H 280.200012 V 259.5 Z" class="st6" style="fill: rgb(57, 87, 21); fill-opacity: 0.2;"/>
			</g>
			<g>
				<path d="M 341.600006 99.199997 H 382.300007 V 127.399998 H 341.600006 V 99.199997 Z" class="st6" style="fill: rgb(57, 87, 21); fill-opacity: 0.2;"/>
			</g>
			<g>
				<path d="M 384.799988 185.600006 H 423.799988 V 216.300007 H 384.799988 V 185.600006 Z" class="st6" style="fill: rgb(57, 87, 21); fill-opacity: 0.2;"/>
			</g>
			<g>
				<path d="M 442.100006 296.899994 H 475.300007 V 335.099995 H 442.100006 V 296.899994 Z" class="st6" style="fill: rgb(57, 87, 21); fill-opacity: 0.2;"/>
			</g>
			<g>
				<path d="M 533.400024 221.300003 H 557.500025 V 262.800003 H 533.400024 V 221.300003 Z" class="st6" style="fill: rgb(57, 87, 21); fill-opacity: 0.2;"/>
			</g>
			<g>
				<path d="M 539.299988 371.600006 H 557.599987 V 395.700006 H 539.299988 V 371.600006 Z" class="st6" style="fill: rgb(57, 87, 21); fill-opacity: 0.2;"/>
			</g>
			<g>
				<path d="M 433 38.599998 H 477.799999 V 65.199999 H 433 V 38.599998 Z" class="st6" style="fill: rgb(57, 87, 21); fill-opacity: 0.2;"/>
			</g>
			<g>
				<path d="M 469.5 -44.400002 H 503.5 V -26.100002 H 469.5 V -44.400002 Z" class="st6" style="fill: rgb(57, 87, 21); fill-opacity: 0.2;"/>
			</g>
			<g>
				<path d="M 513.5 90.099998 H 530.9 V 115.799999 H 513.5 V 90.099998 Z" class="st6" style="fill: rgb(57, 87, 21); fill-opacity: 0.2;"/>
			</g>
			<g>
				<path d="M 80.900002 25.299999 H 105.000002 V 66.799999 H 80.900002 V 25.299999 Z" class="st5" style="fill: rgb(196, 5, 31); fill-opacity: 0.2;"/>
			</g>
			<g>
				<path d="M 360.700012 -45.200001 H 384.800013 V -2 H 360.700012 V -45.200001 Z" class="st5" style="fill: rgb(196, 5, 31); fill-opacity: 0.2;"/>
			</g>
			<g>
				<path d="M 540.099976 -47.700001 H 564.999975 V -27.800001 H 540.099976 V -47.700001 Z" class="st5" style="fill: rgb(196, 5, 31); fill-opacity: 0.2;"/>
			</g>
			<g>
				<path d="M 396.399994 118.300003 H 444.599995 V 173.100002 H 396.399994 V 118.300003 Z" class="st5" style="fill: rgb(196, 5, 31); fill-opacity: 0.2;"/>
			</g>
			<g>
				<path d="M 370.700012 281.899994 H 397.300013 V 303.499994 H 370.700012 V 281.899994 Z" class="st5" style="fill: rgb(196, 5, 31); fill-opacity: 0.2;"/>
			</g>
			<g>
				<path d="M 371.5 359.100006 H 387.3 V 393.100006 H 371.5 V 359.100006 Z" class="st6" style="fill: rgb(57, 87, 21); fill-opacity: 0.2;"/>
			</g>
			<g>
				<path d="M 491.100006 268.600006 H 516.800007 V 291.000006 H 491.100006 V 268.600006 Z" class="st5" style="fill: rgb(196, 5, 31); fill-opacity: 0.2;"/>
			</g>
			<g>
				<path d="M 217.899994 114.199997 H 264.399994 V 154.899998 H 217.899994 V 114.199997 Z" class="st5" style="fill: rgb(196, 5, 31); fill-opacity: 0.2;"/>
			</g>
			<g>
				<path d="M 258.600006 20.4 H 335.000008 V 58.6 H 258.600006 V 20.4 Z" class="st2" style="fill: rgb(240, 228, 206); fill-opacity: 0.2;"/>
			</g>
			<g>
				<path d="M 106.699997 340.899994 H 129.099997 V 399.899994 H 106.699997 V 340.899994 Z" class="st2" style="fill: rgb(240, 228, 206); fill-opacity: 0.2;"/>
			</g>
			<g>
				<path d="M 434.600006 213.800003 H 482.800007 V 233.700003 H 434.600006 V 213.800003 Z" class="st2" style="fill: rgb(240, 228, 206); fill-opacity: 0.2;"/>
			</g>
			<g>
				<path d="M 535.099976 178.100006 H 564.199976 V 201.300007 H 535.099976 V 178.100006 Z" class="st2" style="fill: rgb(240, 228, 206); fill-opacity: 0.2;"/>
			</g>
			<g>
				<path d="M 487 78.5 H 503.6 V 135 H 487 V 78.5 Z" class="st2" style="fill: rgb(240, 228, 206); fill-opacity: 0.2;"/>
			</g>
			<g>
				<path d="M 141.5 55.200001 H 188 V 92.600002 H 141.5 V 55.200001 Z" class="st2" style="fill: rgb(240, 228, 206); fill-opacity: 0.2;"/>
			</g>
			<g>
				<path d="M -4.6 45.299999 H 63.499999 V 66.099998 H -4.6 V 45.299999 Z" class="st2" style="fill: rgb(240, 228, 206); fill-opacity: 0.2;"/>
			</g>
			<g>
				<path d="M -9.6 168.199997 H 4.5 V 213.899998 H -9.6 V 168.199997 Z" class="st2" style="fill: rgb(240, 228, 206); fill-opacity: 0.2;"/>
			</g>
			<g>
				<path d="M 139.899994 -51 H 163.999994 V -32.700001 H 139.899994 V -51 Z" class="st2" style="fill: rgb(240, 228, 206); fill-opacity: 0.2;"/>
			</g>
			<g>
				<path d="M 196.300003 -41.900002 H 242.000004 V -25.300001 H 196.300003 V -41.900002 Z" class="st2" style="fill: rgb(240, 228, 206); fill-opacity: 0.2;"/>
			</g>
			<g>
				<path d="M 220.399994 291 H 247.799994 V 345 H 220.399994 V 291 Z" class="st3" style="fill: rgb(11, 49, 131); fill-opacity: 0.2;"/>
			</g>
			<g>
				<path d="M 144.899994 374.100006 H 166.499994 V 395.700006 H 144.899994 V 374.100006 Z" class="st5" style="fill: rgb(196, 5, 31); fill-opacity: 0.2;"/>
			</g>
			<g>
				<path d="M 296 115 H 315.1 V 129.9 H 296 V 115 Z" class="st2" style="fill: rgb(240, 228, 206); fill-opacity: 0.2;"/>
			</g>
			<g>
				<path d="M 315.100006 -6.2 H 336.700006 V 12.900001 H 315.100006 V -6.2 Z" class="st6" style="fill: rgb(57, 87, 21); fill-opacity: 0.2;"/>
			</g>
			<g>
				<path d="M 394.799988 -38.599998 H 422.199987 V -9.499998 H 394.799988 V -38.599998 Z" class="st4" style="fill: rgb(243, 185, 0); fill-opacity: 0.2;"/>
			</g>
			<g>
				<path d="M 63.5 204.699997 H 87.6 V 281.899994 H 63.5 V 204.699997 Z" class="st2" style="fill: rgb(240, 228, 206); fill-opacity: 0.2;"/>
			</g>
			<g>
				<path d="M 38.599998 110.900002 H 61.799999 V 140.000002 H 38.599998 V 110.900002 Z" class="st3" style="fill: rgb(11, 49, 131); fill-opacity: 0.2;"/>
			</g>
			<g>
				<path d="M 121.599998 28.700001 H 136.499998 V 43.6 H 121.599998 V 28.700001 Z" class="st6" style="fill: rgb(57, 87, 21); fill-opacity: 0.2;"/>
			</g>
			<g>
				<path d="M 82.599998 -50.200001 H 119.099998 V -33.6 H 82.599998 V -50.200001 Z" class="st3" style="fill: rgb(11, 49, 131); fill-opacity: 0.2;"/>
			</g>
			<g>
				<path d="M -6.2 268.600006 H 51.099999 V 300.200006 H -6.2 V 268.600006 Z" class="st5" style="fill: rgb(196, 5, 31); fill-opacity: 0.2;"/>
			</g>
			<g>
				<path d="M 167.300003 255.300003 H 198.000004 V 300.100002 H 167.300003 V 255.300003 Z" class="st3" style="fill: rgb(11, 49, 131); fill-opacity: 0.2;"/>
			</g>
			<g>
				<path class="st7" d="M74.6,375.1H11.9v-44.2h62.6V375.1L74.6,375.1z M16.1,370.9h54.2v-35.8H16.1V370.9L16.1,370.9z" style="fill: rgb(10, 13, 23); fill-opacity: 0.2;"/>
			</g>
			<g>
				<path class="st7" d="M59.9,313.6H2.7V199.5h57.3V313.6L59.9,313.6z M6.9,309.4h48.8V203.7H6.9V309.4L6.9,309.4z" style="fill: rgb(10, 13, 23); fill-opacity: 0.2;"/>
			</g>
			<g>
				<path class="st7" d="M156,171.4H67.3v-42.7H156V171.4L156,171.4z M71.5,167.2h80.4V133H71.5V167.2L71.5,167.2z" style="fill: rgb(10, 13, 23); fill-opacity: 0.2;"/>
			</g>
			<g>
				<path class="st7" d="M175.3,107.6H94.9V58.8h80.3V107.6L175.3,107.6z M99.2,103.4H171V63H99.2V103.4L99.2,103.4z" style="fill: rgb(10, 13, 23); fill-opacity: 0.2;"/>
			</g>
			<g>
				<path class="st7" d="M49.2,75.3H-15V-26.5h64.2V75.3L49.2,75.3z M-10.8,71.1H45v-93.4h-55.7V71.1L-10.8,71.1z" style="fill: rgb(10, 13, 23); fill-opacity: 0.2;"/>
			</g>
			<g>
				<path class="st7" d="M189.9-1.6H94.2v-45.7h95.7V-1.6L189.9-1.6z M98.4-5.8h87.3v-37.3H98.4V-5.8L98.4-5.8z" style="fill: rgb(10, 13, 23); fill-opacity: 0.2;"/>
			</g>
			<g>
				<path class="st7" d="M249.1,238.3h-64.2V131.1h64.2V238.3L249.1,238.3z M189.1,234.1h55.7v-98.8h-55.7V234.1L189.1,234.1z" style="fill: rgb(10, 13, 23); fill-opacity: 0.2;"/>
			</g>
			<g>
				<path class="st7" d="M149.1,319.8h-42.7V218.7h42.7V319.8L149.1,319.8z M110.7,315.6h34.2v-92.7h-34.2V315.6L110.7,315.6z" style="fill: rgb(10, 13, 23); fill-opacity: 0.2;"/>
			</g>
			<g>
				<path class="st7" d="M33.8,153H5v-35.7h28.8V153L33.8,153z M9.2,148.7h20.4v-27.3H9.2V148.7L9.2,148.7z" style="fill: rgb(10, 13, 23); fill-opacity: 0.2;"/>
			</g>
			<g>
				<path class="st7" d="M179.1,412h-64.2v-45.7h64.2V412L179.1,412z M119.1,407.8h55.7v-37.3h-55.7V407.8L119.1,407.8z" style="fill: rgb(10, 13, 23); fill-opacity: 0.2;"/>
			</g>
			<g>
				<path class="st7" d="M296.7,371.3h-68.8V304h68.8V371.3L296.7,371.3z M232.2,367.1h60.4v-58.8h-60.4V367.1L232.2,367.1z" style="fill: rgb(10, 13, 23); fill-opacity: 0.2;"/>
			</g>
			<g>
				<path class="st7" d="M342.9,272.9h-77.3v-80.3h77.3V272.9L342.9,272.9z M269.8,268.7h68.8v-71.9h-68.8V268.7L269.8,268.7z" style="fill: rgb(10, 13, 23); fill-opacity: 0.2;"/>
			</g>
			<g>
				<path class="st7" d="M393.6,123.7H276.4V62.6h117.2V123.7L393.6,123.7z M280.6,119.5h108.8V66.8H280.6V119.5L280.6,119.5z" style="fill: rgb(10, 13, 23); fill-opacity: 0.2;"/>
			</g>
			<g>
				<path class="st7" d="M301.4,43.8h-78v-83.4h78V43.8L301.4,43.8z M227.5,39.6h69.6v-75h-69.6V39.6L227.5,39.6z" style="fill: rgb(10, 13, 23); fill-opacity: 0.2;"/>
			</g>
			<g>
				<path class="st7" d="M363.6,377.4h-40.4v-78h40.4V377.4L363.6,377.4z M327.5,373.2h31.9v-69.6h-31.9V373.2L327.5,373.2z" style="fill: rgb(10, 13, 23); fill-opacity: 0.2;"/>
			</g>
			<g>
				<path class="st7" d="M439,295.2h-55v-41.9h55V295.2L439,295.2z M388.2,291h46.5v-33.5h-46.5V291L388.2,291z" style="fill: rgb(10, 13, 23); fill-opacity: 0.2;"/>
			</g>
			<g>
				<path class="st7" d="M525.8,393.6H404v-81.1h121.8V393.6L525.8,393.6z M408.2,389.4h113.4v-72.7H408.2V389.4L408.2,389.4z" style="fill: rgb(10, 13, 23); fill-opacity: 0.2;"/>
			</g>
			<g>
				<path class="st7" d="M548.9,300.6h-43.4v-74.9h43.4V300.6L548.9,300.6z M509.7,296.3h35v-66.5h-35V296.3L509.7,296.3z" style="fill: rgb(10, 13, 23); fill-opacity: 0.2;"/>
			</g>
			<g>
				<path class="st7" d="M487.4,193.7H373.2v-55h114.2V193.7L487.4,193.7z M377.5,189.5h105.7V143H377.5V189.5L377.5,189.5z" style="fill: rgb(10, 13, 23); fill-opacity: 0.2;"/>
			</g>
			<g>
				<path class="st7" d="M555.8,139.9h-38V38h38V139.9L555.8,139.9z M522,135.7h29.6V42.2H522V135.7L522,135.7z" style="fill: rgb(10, 13, 23); fill-opacity: 0.2;"/>
			</g>
			<g>
				<path class="st7" d="M557.4,17.6h-94.9v-56.5h94.9V17.6L557.4,17.6z M466.6,13.4h86.5v-48.1h-86.5V13.4L466.6,13.4z" style="fill: rgb(10, 13, 23); fill-opacity: 0.2;"/>
			</g>
			<g>
				<path class="st7" d="M417.4,49.2h-29.6v-74.9h29.6V49.2L417.4,49.2z M392.1,44.9h21.2v-66.5h-21.2V44.9L392.1,44.9z" style="fill: rgb(10, 13, 23); fill-opacity: 0.2;"/>
			</g>
		</g>
	</g>
<g transform="matrix(1, 0, 0, 1, 0, 0)">
		<g>
			<g>
				<path class="st4" d="M285.6,368.2c0.3,0,0.5,0.2,0.5,0.2l-4.6,9.8c-0.5,0-1.7,0.1-2,0.1c-0.3,0-0.5-0.2-0.5-0.2l-1.6-9.8&#10;&#9;&#9;&#9;&#9;&#9;c1,0,2.1-0.1,2.5-0.1c0.3,0,0.5,0.2,0.5,0.2l0.5,4.8c0,0.4,0,1,0,1.6c0.2-0.7,0.3-1.3,0.5-1.7l1.9-4.8&#10;&#9;&#9;&#9;&#9;&#9;C284.2,368.3,285.3,368.2,285.6,368.2L285.6,368.2z" style="fill: rgb(243, 185, 0); fill-opacity: 0.2;"/>
			</g>
			<g>
				<path class="st4" d="M290.3,373c0,1.1-0.6,1.8-2.1,2.1l-1.6,0.3c0.1,0.7,0.5,1,1.2,1c0.9,0,1.4-0.6,1.4-0.6s0.4,0.2,0.4,0.7&#10;&#9;&#9;&#9;&#9;&#9;c0,0.9-1.4,1.9-2.9,1.9c-1.6,0-2.7-1-2.7-2.7c0-2,1.4-4.7,3.9-4.7C289.5,371,290.3,371.8,290.3,373L290.3,373z M287.7,374&#10;&#9;&#9;&#9;&#9;&#9;c0.3-0.1,0.4-0.4,0.4-0.7c0-0.3-0.1-0.7-0.4-0.7c-0.6,0-0.9,1-1,1.7L287.7,374z" style="fill: rgb(243, 185, 0); fill-opacity: 0.2;"/>
			</g>
			<g>
				<path class="st4" d="M294.5,371c1.3,0,2.2,0.7,2.2,1.5c0,1.1-1.3,1.5-1.3,1.5s-0.4-1.2-1.3-1.2c-0.6,0-0.9,0.6-0.9,1.9&#10;&#9;&#9;&#9;&#9;&#9;c0,1.2,0.3,1.7,1.1,1.7c0.8,0,1.3-0.5,1.3-0.5s0.4,0.2,0.4,0.7c0,0.9-1.3,1.8-2.8,1.8c-1.6,0-2.6-1-2.6-2.7&#10;&#9;&#9;&#9;&#9;&#9;C290.5,373.7,292,371,294.5,371L294.5,371z" style="fill: rgb(243, 185, 0); fill-opacity: 0.2;"/>
			</g>
			<g>
				<path class="st4" d="M300.6,369.4c0.3,0,0.5,0.2,0.5,0.2l-0.2,1.5h1.6l-0.4,1.1c-0.1,0.4-0.3,0.6-0.7,0.6h-0.8l-0.5,2.9&#10;&#9;&#9;&#9;&#9;&#9;c-0.1,0.5,0,0.7,0.3,0.7c0.3,0,0.6-0.2,0.6-0.2s0.4,0.2,0.4,0.7c0,0.7-1,1.4-2.3,1.4c-1.4,0-1.9-0.8-1.7-2.3l0.5-3.3h-0.9&#10;&#9;&#9;&#9;&#9;&#9;l0.4-1.2c0.1-0.3,0.3-0.5,0.7-0.5h0.4l0.5-1.4C299.7,369.6,300.3,369.4,300.6,369.4L300.6,369.4z" style="fill: rgb(243, 185, 0); fill-opacity: 0.2;"/>
			</g>
			<g>
				<path class="st4" d="M308.3,373c0,1.1-0.6,1.8-2.1,2.1l-1.6,0.3c0.1,0.7,0.5,1,1.2,1c0.9,0,1.4-0.6,1.4-0.6s0.4,0.2,0.4,0.7&#10;&#9;&#9;&#9;&#9;&#9;c0,0.9-1.4,1.9-2.9,1.9c-1.6,0-2.7-1-2.7-2.7c0-2,1.4-4.7,3.9-4.7C307.4,371,308.3,371.8,308.3,373L308.3,373z M305.6,374&#10;&#9;&#9;&#9;&#9;&#9;c0.3-0.1,0.4-0.4,0.4-0.7c0-0.3-0.1-0.7-0.4-0.7c-0.6,0-0.9,1-1,1.7L305.6,374z" style="fill: rgb(243, 185, 0); fill-opacity: 0.2;"/>
			</g>
			<g>
				<path class="st4" d="M314.6,373c0,1.1-0.6,1.8-2.1,2.1l-1.6,0.3c0.1,0.7,0.5,1,1.2,1c0.9,0,1.4-0.6,1.4-0.6s0.4,0.2,0.4,0.7&#10;&#9;&#9;&#9;&#9;&#9;c0,0.9-1.4,1.9-2.9,1.9c-1.6,0-2.7-1-2.7-2.7c0-2,1.4-4.7,3.9-4.7C313.8,371,314.6,371.8,314.6,373L314.6,373z M312,374&#10;&#9;&#9;&#9;&#9;&#9;c0.3-0.1,0.4-0.4,0.4-0.7c0-0.3-0.1-0.7-0.4-0.7c-0.6,0-0.9,1-1,1.7L312,374z" style="fill: rgb(243, 185, 0); fill-opacity: 0.2;"/>
			</g>
			<g>
				<path class="st4" d="M319.8,375.7c0,0,0.5,0.5,0.5,1.3c0,1.1-0.9,1.4-1.7,1.4c-1,0-1.7-0.5-2.5-0.7c-0.2,0.2-0.4,0.5-0.6,0.7&#10;&#9;&#9;&#9;&#9;&#9;c0,0-1.1,0-1.1-0.8c0-0.9,1.6-2.6,3.3-4.4c-0.2,0-0.4-0.1-0.6-0.1c-1,0-1.3,0.5-1.3,0.5s-0.5-0.6-0.5-1.3c0.1-1,1-1.3,1.8-1.3&#10;&#9;&#9;&#9;&#9;&#9;c0.8,0,1.4,0.3,2,0.6l0.5-0.6c0,0,1.1,0,1.1,0.8c0,0.9-1.5,2.5-3.2,4.3c0.3,0.1,0.7,0.2,1,0.2&#10;&#9;&#9;&#9;&#9;&#9;C319.4,376.2,319.8,375.7,319.8,375.7L319.8,375.7z" style="fill: rgb(243, 185, 0); fill-opacity: 0.2;"/>
			</g>
			<g>
				<path class="st4" d="M327.2,377.7c-0.4,2.5-2.1,3.8-4.3,3.8c-1.4,0-2.4-0.7-2.4-1.6c0-0.6,0.5-0.8,0.5-0.8s0.5,0.4,1.4,0.4&#10;&#9;&#9;&#9;&#9;&#9;c0.9,0,2-0.4,2.3-1.7l0.2-1c-0.6,0.8-1.4,1.5-2.3,1.5c-1.1,0-1.6-0.9-1.3-2.7l0.3-2c0.2-1.2,0.2-2.2,0.2-2.2&#10;&#9;&#9;&#9;&#9;&#9;c0.8-0.1,1.8-0.5,2.2-0.5c0.3,0,0.5,0.2,0.5,0.2l-0.4,2.5l-0.4,2.3c0,0.2,0,0.3,0.2,0.3c0.9,0,1.4-2.6,1.4-2.6&#10;&#9;&#9;&#9;&#9;&#9;c0.2-1.2,0.2-2.2,0.2-2.2c0.8-0.1,1.8-0.5,2.2-0.5c0.3,0,0.5,0.2,0.5,0.2l-0.4,2.5L327.2,377.7z" style="fill: rgb(243, 185, 0); fill-opacity: 0.2;"/>
			</g>
		</g>
		<g>
			<path class="st4" d="M221.8,371.4h2.4c0.6,0,1,0,1.3,0.1c0.4,0.1,0.7,0.3,1,0.6c0.3,0.3,0.5,0.7,0.6,1.1c0.1,0.4,0.2,0.9,0.2,1.6&#10;&#9;&#9;&#9;&#9;c0,0.5-0.1,1-0.2,1.4c-0.2,0.5-0.4,0.9-0.7,1.2c-0.2,0.2-0.5,0.4-0.9,0.5c-0.3,0.1-0.7,0.1-1.2,0.1h-2.5V371.4z M223.1,372.5v4.4&#10;&#9;&#9;&#9;&#9;h1c0.4,0,0.6,0,0.8-0.1c0.2-0.1,0.4-0.1,0.5-0.3c0.1-0.1,0.3-0.3,0.4-0.6c0.1-0.3,0.1-0.7,0.1-1.2s0-0.9-0.1-1.2&#10;&#9;&#9;&#9;&#9;c-0.1-0.3-0.2-0.5-0.4-0.6c-0.2-0.2-0.4-0.3-0.6-0.3c-0.2,0-0.6-0.1-1.1-0.1H223.1z" style="fill: rgb(243, 185, 0); fill-opacity: 0.2;"/>
			<path class="st4" d="M231.1,376.5l1.3,0.2c-0.2,0.5-0.4,0.8-0.8,1.1c-0.4,0.2-0.8,0.4-1.3,0.4c-0.8,0-1.5-0.3-1.9-0.8&#10;&#9;&#9;&#9;&#9;c-0.3-0.4-0.5-1-0.5-1.7c0-0.8,0.2-1.4,0.6-1.9c0.4-0.5,0.9-0.7,1.6-0.7c0.7,0,1.3,0.2,1.7,0.7c0.4,0.5,0.6,1.2,0.6,2.2h-3.2&#10;&#9;&#9;&#9;&#9;c0,0.4,0.1,0.7,0.3,0.9c0.2,0.2,0.4,0.3,0.7,0.3c0.2,0,0.4-0.1,0.5-0.2C230.9,376.9,231,376.7,231.1,376.5z M231.1,375.2&#10;&#9;&#9;&#9;&#9;c0-0.4-0.1-0.6-0.3-0.8c-0.2-0.2-0.4-0.3-0.7-0.3c-0.3,0-0.5,0.1-0.7,0.3c-0.2,0.2-0.3,0.5-0.3,0.8H231.1z" style="fill: rgb(243, 185, 0); fill-opacity: 0.2;"/>
			<path class="st4" d="M232.8,376.6l1.3-0.2c0.1,0.2,0.2,0.4,0.3,0.6c0.2,0.1,0.4,0.2,0.7,0.2c0.3,0,0.6-0.1,0.7-0.2&#10;&#9;&#9;&#9;&#9;c0.1-0.1,0.2-0.2,0.2-0.3c0-0.1,0-0.2-0.1-0.2c-0.1-0.1-0.2-0.1-0.4-0.2c-1-0.2-1.7-0.4-2-0.6c-0.4-0.3-0.6-0.6-0.6-1.1&#10;&#9;&#9;&#9;&#9;c0-0.4,0.2-0.8,0.5-1c0.3-0.3,0.8-0.4,1.5-0.4c0.7,0,1.1,0.1,1.5,0.3c0.3,0.2,0.5,0.5,0.7,1l-1.2,0.2c-0.1-0.2-0.1-0.3-0.3-0.4&#10;&#9;&#9;&#9;&#9;c-0.1-0.1-0.3-0.1-0.6-0.1c-0.3,0-0.6,0-0.7,0.1c-0.1,0.1-0.1,0.2-0.1,0.3c0,0.1,0,0.2,0.1,0.2c0.1,0.1,0.5,0.2,1.2,0.4&#10;&#9;&#9;&#9;&#9;c0.7,0.2,1.1,0.3,1.4,0.6c0.3,0.2,0.4,0.5,0.4,0.9c0,0.4-0.2,0.8-0.6,1.1c-0.4,0.3-0.9,0.5-1.6,0.5c-0.7,0-1.2-0.1-1.6-0.4&#10;&#9;&#9;&#9;&#9;C233.2,377.4,232.9,377.1,232.8,376.6z" style="fill: rgb(243, 185, 0); fill-opacity: 0.2;"/>
			<path class="st4" d="M238.2,372.5v-1.2h1.3v1.2H238.2z M238.2,378v-4.8h1.3v4.8H238.2z" style="fill: rgb(243, 185, 0); fill-opacity: 0.2;"/>
			<path class="st4" d="M240.5,378.3l1.5,0.2c0,0.2,0.1,0.3,0.2,0.3c0.1,0.1,0.3,0.1,0.6,0.1c0.3,0,0.6,0,0.7-0.1&#10;&#9;&#9;&#9;&#9;c0.1-0.1,0.2-0.2,0.3-0.3c0-0.1,0.1-0.3,0.1-0.6v-0.7c-0.4,0.5-0.9,0.8-1.4,0.8c-0.6,0-1.2-0.3-1.5-0.8c-0.3-0.4-0.4-1-0.4-1.6&#10;&#9;&#9;&#9;&#9;c0-0.8,0.2-1.4,0.6-1.8c0.4-0.4,0.9-0.6,1.4-0.6c0.6,0,1.1,0.3,1.5,0.8v-0.7h1.2v4.3c0,0.6,0,1-0.1,1.3c-0.1,0.3-0.2,0.5-0.4,0.7&#10;&#9;&#9;&#9;&#9;c-0.2,0.2-0.4,0.3-0.7,0.4c-0.3,0.1-0.6,0.1-1.1,0.1c-0.8,0-1.4-0.1-1.7-0.4c-0.3-0.3-0.5-0.6-0.5-1.1&#10;&#9;&#9;&#9;&#9;C240.5,378.4,240.5,378.4,240.5,378.3z M241.6,375.5c0,0.5,0.1,0.9,0.3,1.1c0.2,0.2,0.4,0.4,0.7,0.4c0.3,0,0.6-0.1,0.8-0.4&#10;&#9;&#9;&#9;&#9;c0.2-0.2,0.3-0.6,0.3-1.1c0-0.5-0.1-0.9-0.3-1.1c-0.2-0.2-0.5-0.4-0.8-0.4c-0.3,0-0.6,0.1-0.8,0.4&#10;&#9;&#9;&#9;&#9;C241.7,374.7,241.6,375,241.6,375.5z" style="fill: rgb(243, 185, 0); fill-opacity: 0.2;"/>
			<path class="st4" d="M250.5,378h-1.3v-2.5c0-0.5,0-0.9-0.1-1c-0.1-0.2-0.1-0.3-0.3-0.4c-0.1-0.1-0.3-0.1-0.4-0.1&#10;&#9;&#9;&#9;&#9;c-0.2,0-0.4,0.1-0.6,0.2c-0.2,0.1-0.3,0.3-0.4,0.5c-0.1,0.2-0.1,0.6-0.1,1.1v2.2h-1.3v-4.8h1.2v0.7c0.4-0.5,0.9-0.8,1.6-0.8&#10;&#9;&#9;&#9;&#9;c0.3,0,0.5,0.1,0.8,0.2c0.2,0.1,0.4,0.2,0.5,0.4c0.1,0.2,0.2,0.3,0.2,0.5c0,0.2,0.1,0.5,0.1,0.9V378z" style="fill: rgb(243, 185, 0); fill-opacity: 0.2;"/>
			<path class="st4" d="M254.3,376.5l1.3,0.2c-0.2,0.5-0.4,0.8-0.8,1.1c-0.4,0.2-0.8,0.4-1.3,0.4c-0.8,0-1.5-0.3-1.9-0.8&#10;&#9;&#9;&#9;&#9;c-0.3-0.4-0.5-1-0.5-1.7c0-0.8,0.2-1.4,0.6-1.9c0.4-0.5,0.9-0.7,1.6-0.7c0.7,0,1.3,0.2,1.7,0.7c0.4,0.5,0.6,1.2,0.6,2.2h-3.2&#10;&#9;&#9;&#9;&#9;c0,0.4,0.1,0.7,0.3,0.9c0.2,0.2,0.4,0.3,0.7,0.3c0.2,0,0.4-0.1,0.5-0.2C254.2,376.9,254.3,376.7,254.3,376.5z M254.4,375.2&#10;&#9;&#9;&#9;&#9;c0-0.4-0.1-0.6-0.3-0.8c-0.2-0.2-0.4-0.3-0.7-0.3c-0.3,0-0.5,0.1-0.7,0.3c-0.2,0.2-0.3,0.5-0.3,0.8H254.4z" style="fill: rgb(243, 185, 0); fill-opacity: 0.2;"/>
			<path class="st4" d="M260.9,378h-1.2v-0.7c-0.2,0.3-0.4,0.5-0.7,0.6c-0.3,0.1-0.5,0.2-0.8,0.2c-0.6,0-1-0.2-1.4-0.7&#10;&#9;&#9;&#9;&#9;c-0.4-0.4-0.6-1.1-0.6-1.9c0-0.8,0.2-1.4,0.6-1.9c0.4-0.4,0.9-0.6,1.5-0.6c0.5,0,1,0.2,1.4,0.7v-2.4h1.3V378z M257.5,375.5&#10;&#9;&#9;&#9;&#9;c0,0.5,0.1,0.9,0.2,1.1c0.2,0.3,0.5,0.5,0.9,0.5c0.3,0,0.5-0.1,0.7-0.4c0.2-0.2,0.3-0.6,0.3-1.1c0-0.6-0.1-0.9-0.3-1.2&#10;&#9;&#9;&#9;&#9;c-0.2-0.2-0.5-0.4-0.8-0.4c-0.3,0-0.6,0.1-0.8,0.4C257.6,374.7,257.5,375,257.5,375.5z" style="fill: rgb(243, 185, 0); fill-opacity: 0.2;"/>
			<path class="st4" d="M264.3,378v-6.6h1.3v2.4c0.4-0.4,0.9-0.7,1.4-0.7c0.6,0,1.1,0.2,1.5,0.6c0.4,0.4,0.6,1,0.6,1.8&#10;&#9;&#9;&#9;&#9;c0,0.8-0.2,1.5-0.6,1.9c-0.4,0.4-0.9,0.7-1.4,0.7c-0.3,0-0.5-0.1-0.8-0.2c-0.3-0.1-0.5-0.3-0.7-0.6v0.7H264.3z M265.6,375.5&#10;&#9;&#9;&#9;&#9;c0,0.5,0.1,0.9,0.2,1.1c0.2,0.3,0.5,0.5,0.9,0.5c0.3,0,0.5-0.1,0.7-0.4c0.2-0.2,0.3-0.6,0.3-1.1c0-0.5-0.1-0.9-0.3-1.2&#10;&#9;&#9;&#9;&#9;c-0.2-0.2-0.5-0.4-0.8-0.4c-0.3,0-0.6,0.1-0.8,0.4C265.7,374.7,265.6,375,265.6,375.5z" style="fill: rgb(243, 185, 0); fill-opacity: 0.2;"/>
			<path class="st4" d="M269.3,373.2h1.4l1.1,3.4l1.1-3.4h1.3l-1.7,4.6l-0.3,0.8c-0.1,0.3-0.2,0.5-0.3,0.6c-0.1,0.1-0.2,0.3-0.3,0.4&#10;&#9;&#9;&#9;&#9;c-0.1,0.1-0.3,0.2-0.5,0.2c-0.2,0.1-0.4,0.1-0.6,0.1c-0.2,0-0.5,0-0.7-0.1l-0.1-1c0.2,0,0.4,0.1,0.5,0.1c0.3,0,0.5-0.1,0.7-0.3&#10;&#9;&#9;&#9;&#9;c0.1-0.2,0.2-0.4,0.3-0.7L269.3,373.2z" style="fill: rgb(243, 185, 0); fill-opacity: 0.2;"/>
		</g>
	</g>
</svg>